<svg xmlns="http://www.w3.org/2000/svg" viewBox="0 0 64 64" id="sql"><g><path fill="#b5b5b5" d="M10,31V20a2,2,0,0,1,2-2H52a2,2,0,0,1,2,2V31"></path><path fill="#fff" d="M15,32V9a4,4,0,0,1,4-4H42.17a2,2,0,0,1,1.42.59l4.82,4.82A2,2,0,0,1,49,11.83V32"></path><path fill="#ffbc00" d="M19,5a4,4,0,0,0-4,4v7H33a4,4,0,0,0,4-4V5Zm1.12,9c-1.66,0-2.41-.84-2.41-1.46a.53.53,0,0,1,.56-.54c.71,0,.52,1,1.85,1,.68,0,1.06-.38,1.06-.76,0-.23-.11-.49-.56-.6l-1.48-.38c-1.19-.3-1.41-1-1.41-1.57C17.73,8.44,18.91,8,20,8s2.23.57,2.23,1.34a.54.54,0,0,1-.6.52c-.61,0-.5-.85-1.72-.85-.61,0-1,.28-1,.68s.48.52.9.62l1.1.25c1.19.27,1.5,1,1.5,1.65C22.49,13.21,21.71,14,20.12,14Zm8.61-.4a.33.33,0,0,1,.1.23.51.51,0,0,1-.45.49.47.47,0,0,1-.37-.17l-.51-.47a3,3,0,0,1-1.39.32C24,14,23.2,12.64,23.2,10.9A2.73,2.73,0,0,1,26.11,8,2.73,2.73,0,0,1,29,10.9a3.17,3.17,0,0,1-.8,2.22Zm4.75.26H30.75c-.47,0-.77-.18-.77-.77V8.65A.61.61,0,0,1,30.63,8a.62.62,0,0,1,.66.66v4.1h2.19c.38,0,.68.19.68.55S33.86,13.85,33.48,13.85Z"></path><path fill="#ffbc00" d="M26.11 9c-1.08 0-1.6.79-1.6 1.89s.36 2 1.6 2a1.64 1.64 0 00.52-.07l-.44-.42a.27.27 0 01-.11-.22.52.52 0 01.45-.49.5.5 0 01.38.17l.45.42a2.6 2.6 0 00.34-1.42C27.7 9.8 27.18 9 26.11 9zM42 5v6a2 2 0 002 2h5V11.83a2 2 0 00-.59-1.42L43 5z"></path><path fill="#a7afba" d="M10,56H54a5,5,0,0,0,5-5V36a5,5,0,0,0-5-5H33L30.73,25A3,3,0,0,0,27.92,23H10a5,5,0,0,0-5,5V51A5,5,0,0,0,10,56Z"></path><path fill="#ffbc00" d="M29,39H39.5A4.49,4.49,0,0,1,44,43.5h0A4.49,4.49,0,0,1,39.5,48h-15A4.49,4.49,0,0,1,20,43.5h0A4.49,4.49,0,0,1,24.5,39"></path><path d="M33 17H15V15H33a3 3 0 003-3V5h2v7A5 5 0 0133 17zM54 57H10a6 6 0 01-6-6V28a6 6 0 016-6H27.92a4 4 0 013.75 2.6l2 5.4H54a6 6 0 016 6V51A6 6 0 0154 57zM10 24a4 4 0 00-4 4V51a4 4 0 004 4H54a4 4 0 004-4V36a4 4 0 00-4-4H33a1 1 0 01-.94-.65L29.79 25.3A2 2 0 0027.92 24z"></path><path d="M39.5 49h-15a5.5 5.5 0 010-11 1 1 0 010 2 3.5 3.5 0 000 7h15a3.5 3.5 0 000-7H29a1 1 0 010-2H39.5a5.5 5.5 0 010 11zM49 28a1 1 0 01-1-1V11.83a1 1 0 00-.29-.71L42.88 6.29A1 1 0 0042.17 6H19a3 3 0 00-3 3V23a1 1 0 01-2 0V9a5 5 0 015-5H42.17a3 3 0 012.12.88l4.83 4.83A3 3 0 0150 11.83V27A1 1 0 0149 28z"></path><path d="M45 14H44a3 3 0 01-3-3V5a1 1 0 012 0v6a1 1 0 001 1h1a1 1 0 010 2zM54 32a1 1 0 01-1-1V20a1 1 0 00-1-1H49a1 1 0 010-2h3a3 3 0 013 3V31A1 1 0 0154 32zM10 24a1 1 0 01-1-1V20a3 3 0 013-3h3a1 1 0 010 2H12a1 1 0 00-1 1v3A1 1 0 0110 24z"></path></g></svg>